static_grf.mot
version=1
nRows=22
nColumns 19
inDegrees=yes
endheader
time	1_ground_force_vx	1_ground_force_vy	1_ground_force_vz	1_ground_force_px	1_ground_force_py	1_ground_force_pz	1_ground_torque_x	1_ground_torque_y	1_ground_torque_z	2_ground_force_vx	2_ground_force_vy	2_ground_force_vz	2_ground_force_px	2_ground_force_py	2_ground_force_pz	2_ground_torque_x	2_ground_torque_y	2_ground_torque_z
            0.503500	           -5.532380	          400.714439	          -36.788132	           -0.254361	            0.005891	           -0.328814	           -0.010498	            0.760368	           -0.069807	            1.814149	          449.563289	           40.647265	           -0.268577	            0.005480	           -0.688026	            0.000620	            0.153565	            0.013885
            0.504000	           -5.715832	          400.534365	          -36.834310	           -0.254163	            0.005892	           -0.329040	           -0.010412	            0.729635	           -0.067099	            1.860875	          449.564463	           40.365677	           -0.268455	            0.005480	           -0.688026	            0.000709	            0.171171	            0.015369
            0.504500	           -5.716485	          401.616746	          -37.013095	           -0.254017	            0.005891	           -0.328813	           -0.010114	            0.710592	           -0.065488	            1.859525	          449.932973	           40.320063	           -0.268514	            0.005481	           -0.688228	            0.000825	            0.199618	            0.017888
            0.505000	           -5.532347	          400.534204	          -36.788905	           -0.254086	            0.005893	           -0.329223	           -0.010709	            0.775286	           -0.071210	            1.862889	          449.011873	           40.410634	           -0.268544	            0.005480	           -0.688097	            0.000768	            0.185157	            0.016664
            0.505500	           -5.669762	          400.533981	          -36.742712	           -0.254155	            0.005893	           -0.329265	           -0.010589	            0.748024	           -0.068619	            1.858134	          450.301756	           40.180593	           -0.268444	            0.005481	           -0.688389	            0.000858	            0.207981	            0.018558
            0.506000	           -5.853151	          401.254812	          -36.693305	           -0.254040	            0.005891	           -0.328753	           -0.011082	            0.759703	           -0.069472	            1.767237	          449.563622	           40.506501	           -0.268458	            0.005481	           -0.688235	            0.000746	            0.189726	            0.017095
            0.506500	           -5.990582	          400.713958	          -36.695283	           -0.253953	            0.005893	           -0.329180	           -0.010703	            0.715953	           -0.065563	            1.485329	          449.747920	           40.178781	           -0.268367	            0.005481	           -0.688210	            0.000750	            0.227049	            0.020284
            0.507000	           -5.761337	          401.795203	          -36.599502	           -0.254194	            0.005892	           -0.328923	           -0.010636	            0.741784	           -0.067569	            1.910445	          448.827567	           40.503813	           -0.268560	            0.005479	           -0.687912	            0.000820	            0.192544	            0.017376
            0.507500	           -6.174313	          401.435378	          -36.783447	           -0.253989	            0.005891	           -0.328776	           -0.010465	            0.680382	           -0.062343	            1.862245	          449.195847	           40.458219	           -0.268487	            0.005480	           -0.688074	            0.000769	            0.185574	            0.016714
            0.508000	           -5.761855	          400.895084	          -36.878502	           -0.254282	            0.005891	           -0.328792	           -0.010936	            0.760932	           -0.069998	            1.811970	          450.117279	           40.226884	           -0.268375	            0.005482	           -0.688454	            0.000831	            0.206531	            0.018458
            0.508500	           -5.807225	          400.173423	          -36.743916	           -0.254047	            0.005892	           -0.328957	           -0.010807	            0.744679	           -0.068376	            1.813422	          449.747932	           40.507138	           -0.268137	            0.005482	           -0.688128	            0.000482	            0.119461	            0.010759
            0.509000	           -6.036655	          401.975839	          -36.689758	           -0.253673	            0.005890	           -0.328479	           -0.009769	            0.650503	           -0.059374	            1.767881	          449.379649	           40.458916	           -0.268218	            0.005481	           -0.688008	            0.000675	            0.171645	            0.015454
            0.509500	           -6.221082	          400.896372	          -37.198359	           -0.254100	            0.005891	           -0.328734	           -0.011427	            0.736390	           -0.068328	            1.581064	          449.195501	           40.270626	           -0.268409	            0.005480	           -0.688032	            0.000765	            0.217266	            0.019478
            0.510000	           -5.807863	          401.796373	          -36.874524	           -0.254005	            0.005892	           -0.328954	           -0.011050	            0.764436	           -0.070155	            1.674181	          449.379311	           40.458956	           -0.268380	            0.005481	           -0.688134	            0.000528	            0.141609	            0.012749
            0.510500	           -6.129090	          402.337532	          -36.963120	           -0.254008	            0.005890	           -0.328586	           -0.011771	            0.772689	           -0.070988	            1.719017	          449.932130	           40.413979	           -0.268131	            0.005482	           -0.688187	            0.000631	            0.165238	            0.014842
            0.511000	           -6.127799	          399.632140	          -36.653727	           -0.254071	            0.005892	           -0.329001	           -0.010893	            0.710433	           -0.065160	            1.810681	          450.485226	           40.322054	           -0.268170	            0.005483	           -0.688491	            0.000659	            0.163945	            0.014674
            0.511500	           -5.945326	          401.435815	          -36.875728	           -0.253870	            0.005891	           -0.328832	           -0.010145	            0.685018	           -0.062925	            1.721093	          449.378978	           40.599720	           -0.268088	            0.005482	           -0.688134	            0.000577	            0.150531	            0.013600
            0.512000	           -5.807488	          401.615548	          -36.737732	           -0.253832	            0.005891	           -0.328785	           -0.010796	            0.746618	           -0.068297	            1.813984	          449.564628	           40.271841	           -0.268120	            0.005482	           -0.688235	            0.000711	            0.176133	            0.015778
            0.512500	           -5.853559	          401.615933	          -36.829330	           -0.253691	            0.005892	           -0.328937	           -0.011173	            0.766576	           -0.070297	            1.674140	          449.379646	           40.365100	           -0.268220	            0.005481	           -0.688175	            0.000669	            0.179704	            0.016142
            0.513000	           -6.082969	          401.435986	          -36.921247	           -0.253729	            0.005891	           -0.328746	           -0.011287	            0.744860	           -0.068507	            1.674887	          449.194835	           40.552155	           -0.268101	            0.005482	           -0.688158	            0.000521	            0.139717	            0.012613
            0.513500	           -5.945128	          400.354221	          -36.880366	           -0.253861	            0.005891	           -0.328893	           -0.011260	            0.758282	           -0.069852	            1.487405	          449.194828	           40.364522	           -0.268112	            0.005481	           -0.687907	            0.000665	            0.200825	            0.018046
            0.514000	           -5.624913	          401.616960	          -37.059175	           -0.254137	            0.005891	           -0.328725	           -0.010521	            0.751223	           -0.069319	            1.627955	          449.195336	           40.364462	           -0.268235	            0.005481	           -0.688032	            0.000672	            0.185440	            0.016664
